HIERARCHY
ROOT ui
{
	 OFFSET 0 0 0
	 CHANNELS 3 XPosition YPosition Z Position
	 EndSite
	 {
	 OFFSET 0 -1 0
	 }
}
ROOT li
{
	 OFFSET 0 0 0
	 CHANNELS 3 XPosition YPosition Z Position
	 EndSite
	 {
	 OFFSET 0 -1 0
	 }
}
ROOT ul
{
	 OFFSET 0 0 0
	 CHANNELS 3 XPosition YPosition Z Position
	 EndSite
	 {
	 OFFSET 0 -1 0
	 }
}
ROOT ll
{
	 OFFSET 0 0 0
	 CHANNELS 3 XPosition YPosition Z Position
	 EndSite
	 {
	 OFFSET 0 -1 0
	 }
}
ROOT tt
{
	 OFFSET 0 0 0
	 CHANNELS 3 XPosition YPosition Z Position
	 EndSite
	 {
	 OFFSET 0 -1 0
	 }
}
ROOT tb
{
	 OFFSET 0 0 0
	 CHANNELS 3 XPosition YPosition Z Position
	 EndSite
	 {
	 OFFSET 0 -1 0
	 }
}
ROOT td
{
	 OFFSET 0 0 0
	 CHANNELS 3 XPosition YPosition Z Position
	 EndSite
	 {
	 OFFSET 0 -1 0
	 }
}
ROOT v
{
	 OFFSET 0 0 0
	 CHANNELS 3 XPosition YPosition Z Position
	 EndSite
	 {
	 OFFSET 0 -1 0
	 }
}
ROOT bn
{
	 OFFSET 0 0 0
	 CHANNELS 3 XPosition YPosition Z Position
	 EndSite
	 {
	 OFFSET 0 -1 0
	 }
}
MOTION
Frames: 16
Frame Time: 0.002
0.003221914052963257	-6.908689737319946E-4	0		0.4740099182128906	-2.2865673828125	0		-1.10301953125	0.05129917907714844	0		-0.7227808837890625	-2.54099169921875	0		1.531982177734375	-0.58139892578125	0		3.18933544921875	-0.18927104187011717	0		4.64138623046875	-0.03347339630126953	0		5.74228076171875	0.22068115234375	0		-0.19986933898925782	5.919943359375	0		
0.03728947830200195	0.008057239532470704	0		0.45221087646484376	-2.27678515625	0		-1.0970042724609375	0.05749184036254883	0		-0.7176065063476562	-2.5337607421875	0		1.5360322265625	-0.5750269775390625	0		3.2176123046875	-0.16924339294433594	0		4.646478515625	-0.022950973510742188	0		5.74373828125	0.2338868865966797	0		-0.18712034606933595	5.92905859375	0		
0.026263622283935546	0.008622846603393554	0		0.49333990478515627	-2.27513037109375	0		-1.0271356201171875	0.051540878295898436	0		-0.7354716186523438	-2.532111572265625	0		1.5309481201171875	-0.5794847412109375	0		3.1834384765625	-0.17708616638183594	0		4.646470703125	-0.02132609176635742	0		5.73932861328125	0.21968684387207033	0		-0.35320541381835935	5.89038330078125	0		
0.004233442783355713	0.00439734411239624	0		0.4703303527832031	-2.285310791015625	0		-1.121959716796875	0.05956107711791992	0		-0.7043858642578125	-2.538328125	0		1.5231455078125	-0.5728782958984375	0		3.185575927734375	-0.17256584167480468	0		4.63451220703125	-0.021472509384155274	0		5.7409140625	0.23639695739746094	0		-0.22212413024902344	5.90939404296875	0		
0.0273496036529541	0.002384974002838135	0		0.48364697265625	-2.283119384765625	0		-1.047854736328125	0.056576114654541015	0		-0.7451179809570313	-2.539238037109375	0		1.5182447509765624	-0.5773060913085938	0		3.18859814453125	-0.1800432891845703	0		4.6326513671875	-0.021781181335449217	0		5.73541357421875	0.2499863739013672	0		-0.22431495666503906	5.90881494140625	0		
-0.0073601617813110354	0.004430309772491455	0		0.4410113525390625	-2.28390625	0		-1.1087056884765625	0.0510257568359375	0		-0.6988958129882813	-2.54967431640625	0		1.525471435546875	-0.5809246215820313	0		3.18021435546875	-0.16028863525390624	0		4.63400830078125	-0.016122413635253907	0		5.7383203125	0.232107177734375	0		-0.21221607971191406	5.91800927734375	0		
0.023968523025512695	0.0013305139541625976	0		0.4675014953613281	-2.28489306640625	0		-1.1062685546875	0.054378944396972655	0		-0.7332928466796875	-2.544642822265625	0		1.517997802734375	-0.5742504272460938	0		3.187555908203125	-0.1627884521484375	0		4.63237890625	-0.016383407592773437	0		5.74305712890625	0.25745458984375	0		-0.21417036437988282	5.91748291015625	0		
-0.0025142929553985597	0.002290657043457031	0		0.466120849609375	-2.285350830078125	0		-1.042768310546875	0.053687000274658205	0		-0.7017529907226563	-2.550748046875	0		1.5165245361328126	-0.5746511840820312	0		3.186060302734375	-0.1630988311767578	0		4.63087548828125	-0.016615591049194335	0		5.7390341796875	0.24343553161621093	0		-0.23016957092285156	5.9072373046875	0		
0.016178525924682618	0.005488996982574463	0		0.48877655029296874	-2.291196533203125	0		-1.0500565185546875	0.05828787231445313	0		-0.7399678955078125	-2.54958203125	0		1.5151807861328126	-0.5750186767578125	0		3.184694580078125	-0.16337722778320313	0		4.6246435546875	-0.008729990005493165	0		5.7410107421875	0.25689959716796873	0		-0.23185929870605468	5.90677685546875	0		
-0.005131830215454101	0.001430001974105835	0		0.45965814208984374	-2.2910908203125	0		-1.051302490234375	0.0578209342956543	0		-0.6752630004882813	-2.561190673828125	0		1.4991285400390626	-0.5660889282226562	0		3.177584228515625	-0.15651777648925783	0		4.62515478515625	-0.022932357788085937	0		5.74132861328125	0.2255060577392578	0		-0.2343941650390625	5.9073701171875	0		
0.018735429763793946	-3.821130096912384E-4	0		0.45866433715820315	-2.291441162109375	0		-1.115582275390625	0.04849826431274414	0		-0.7440923461914063	-2.552409423828125	0		1.5128863525390626	-0.5756474609375	0		3.182357421875	-0.16383282470703125	0		4.62125537109375	-0.01101839542388916	0		5.74643212890625	0.2510664367675781	0		-0.21967080688476562	5.91470263671875	0		
-0.004172677993774414	0.00366716194152832	0		0.46391867065429687	-2.284859619140625	0		-1.0324566650390625	0.05363869094848633	0		-0.705934814453125	-2.55246337890625	0		1.5208798828125	-0.5790640869140625	0		3.188557861328125	-0.15413323974609375	0		4.61851953125	0.002909600019454956	0		5.7494013671875	0.2646636962890625	0		-0.20577487182617188	5.9240927734375	0		
0.020968406677246094	0.0029175899028778076	0		0.4631737365722656	-2.285133544921875	0		-1.044294921875	0.05448413848876953	0		-0.7436438598632813	-2.551149169921875	0		1.502404052734375	-0.5589768676757813	0		3.17874658203125	-0.152119873046875	0		4.62455908203125	-0.003285835027694702	0		5.74879443359375	0.2646240234375	0		-0.23724090576171875	5.90531201171875	0		
-0.013725239753723145	0.005251338005065918	0		0.4584757080078125	-2.289300048828125	0		-1.049082275390625	0.05124874496459961	0		-0.7242465209960938	-2.55078857421875	0		1.4986270751953126	-0.5631132202148438	0		3.173933837890625	-0.15716224670410156	0		4.61486181640625	-0.0011764010190963745	0		5.744609375	0.250939697265625	0		-0.23824378967285156	5.90504345703125	0		
0.012495959281921386	-0.004435901165008545	0		0.4559026794433594	-2.292465576171875	0		-1.0497030029296874	0.05098420715332031	0		-0.7138970336914062	-2.559228759765625	0		1.498032470703125	-0.5632696533203125	0		3.183285888671875	-0.15942054748535156	0		4.60910546875	-0.009112616539001465	0		5.74417138671875	0.2509764404296875	0		-0.2391129913330078	5.90481298828125	0		
-0.009942137718200683	-2.3930799961090088E-4	0		0.4554802551269531	-2.2926318359375	0		-1.1192918701171874	0.04695409774780274	0		-0.7143092041015625	-2.55943994140625	0		1.49754345703125	-0.5633956909179687	0		3.17104248046875	-0.14427639770507814	0		4.6126982421875	-0.003188910961151123	0		5.7516171875	0.24551882934570313	0		-0.35804110717773435	5.89466259765625	0		
